# xmcd CD database file
#
# Track frame offsets:
#	150
#	21450
#	47080
#	64177
#	98105
#	124642
#	142120
#	167865
#	192517
#	213697
#	228902
#
# Disc length: 3363 seconds
#
# Revision: 0
# Processed by: cddbd v1.5PL3 Copyright (c) Steve Scherf et al.
# Submitted via: CDex 1.51
#
DISCID=a60d210b
DTITLE=Patrick Hazell - Blues on the Run
DYEAR=1996
DGENRE=Blues
TTITLE0=Here I Go Again
TTITLE1=Wang Dang Doodle (Willie Dixon)
TTITLE2=Walk My Blues Away
TTITLE3=Goin' To New Orleans
TTITLE4=Can't Pay The Bill
TTITLE5=Trouble
TTITLE6=Here Come Da Mombo
TTITLE7=Early Hour Blues
TTITLE8=Sweet Lovin' Arms
TTITLE9=The Old Red Barn
TTITLE10=Blues On The Run
EXTD=YEAR: 1996
EXTT0=
EXTT1=
EXTT2=
EXTT3=
EXTT4=
EXTT5=
EXTT6=
EXTT7=
EXTT8=
EXTT9=
EXTT10=
PLAYORDER=
